<svg xmlns="http://www.w3.org/2000/svg" width="960" height="540" viewBox="0 0 960 540" role="img" aria-label="Article illustration">
  <defs>
    <linearGradient id="bg" x1="0" y1="0" x2="1" y2="1">
      <stop offset="0%" stop-color="#0f1630" />
      <stop offset="100%" stop-color="#151d3f" />
    </linearGradient>
    <linearGradient id="glow" x1="0" y1="0" x2="1" y2="1">
      <stop offset="0%" stop-color="#51b4db" stop-opacity="0.9" />
      <stop offset="100%" stop-color="#6b1fd6" stop-opacity="0.7" />
    </linearGradient>
  </defs>
  <rect width="960" height="540" rx="28" fill="url(#bg)" />
  <circle cx="130" cy="120" r="70" fill="#51b4db" opacity="0.12" />
  <circle cx="820" cy="100" r="60" fill="#6b1fd6" opacity="0.12" />
  <circle cx="840" cy="440" r="90" fill="#51b4db" opacity="0.12" />
  <rect x="120" y="230" width="300" height="200" rx="18" fill="#121b3b" stroke="#2a335b" />
  <rect x="150" y="260" width="240" height="12" rx="6" fill="#1f2a55" />
  <rect x="150" y="285" width="200" height="12" rx="6" fill="#1f2a55" />
  <rect x="150" y="310" width="220" height="12" rx="6" fill="#1f2a55" />
  <rect x="150" y="335" width="180" height="12" rx="6" fill="#1f2a55" />
  <rect x="520" y="200" width="300" height="220" rx="18" fill="#121b3b" stroke="#2a335b" />
  <path d="M540 360 C600 250, 680 320, 760 230" stroke="url(#glow)" stroke-width="4" fill="none" />
  <circle cx="540" cy="360" r="6" fill="#51b4db" />
  <circle cx="640" cy="300" r="6" fill="#6b1fd6" />
  <circle cx="760" cy="230" r="6" fill="#51b4db" />
  <circle cx="260" cy="190" r="36" fill="#f3d9c6" />
  <rect x="225" y="220" width="70" height="110" rx="28" fill="#51b4db" opacity="0.8" />
</svg>