
<svg xmlns="http://www.w3.org/2000/svg" width="960" height="540" viewBox="0 0 960 540" role="img" aria-label="Learning illustration">
  <defs>
    <linearGradient id="bg" x1="0" y1="0" x2="1" y2="1">
      <stop offset="0%" stop-color="#0f1630" />
      <stop offset="100%" stop-color="#161e44" />
    </linearGradient>
    <linearGradient id="glow" x1="0" y1="0" x2="1" y2="1">
      <stop offset="0%" stop-color="#22b0ff" stop-opacity="0.9" />
      <stop offset="100%" stop-color="#6b1fd6" stop-opacity="0.7" />
    </linearGradient>
  </defs>
  <rect width="960" height="540" rx="28" fill="url(#bg)" />
  <circle cx="120" cy="110" r="80" fill="#22b0ff" opacity="0.12" />
  <circle cx="820" cy="90" r="60" fill="#6b1fd6" opacity="0.12" />
  <circle cx="830" cy="440" r="90" fill="#22b0ff" opacity="0.1" />
  <rect x="60" y="380" width="840" height="18" rx="9" fill="#0b1026" opacity="0.5" />

  
  <circle cx="220" cy="190" r="38" fill="#f3d9c6" />
  <rect x="185" y="230" width="70" height="110" rx="28" fill="#22b0ff" opacity="0.8" />
  <rect x="140" y="330" width="170" height="20" rx="10" fill="#111a38" />

  <rect x="260" y="240" width="220" height="120" rx="16" fill="#121b3b" stroke="#2a335b" />
  <circle cx="300" cy="290" r="10" fill="#22b0ff" />
  <circle cx="360" cy="270" r="10" fill="#6b1fd6" />
  <circle cx="420" cy="300" r="10" fill="#1f2a55" />
  <path d="M300 290 L360 270 L420 300" stroke="#2a335b" stroke-width="2" fill="none" />
  
  <circle cx="640" cy="170" r="34" fill="#f0c9b0" />
  <rect x="608" y="205" width="64" height="100" rx="26" fill="#6b1fd6" opacity="0.8" />
  <rect x="560" y="300" width="190" height="18" rx="9" fill="#111a38" />

  <rect x="520" y="230" width="200" height="120" rx="16" fill="#121b3b" stroke="#2a335b" />
  <rect x="540" y="260" width="160" height="12" rx="6" fill="#1f2a55" />
  <rect x="540" y="285" width="130" height="12" rx="6" fill="#1f2a55" />

</svg>